Coordinates
version=1
nRows=14
nColumns=36
inDegrees=yes

Units are S.I. units (second, meters, Newtons, ...)
If the header above contains a line with 'inDegrees', this indicates whether rotational values are in degrees (yes) or radians (no).

endheader
time	pelvis_tilt	pelvis_list	pelvis_rotation	pelvis_tx	pelvis_ty	pelvis_tz	hip_flexion_r	hip_adduction_r	hip_rotation_r	knee_angle_r	knee_angle_r_beta	ankle_angle_r	subtalar_angle_r	mtp_angle_r	hip_flexion_l	hip_adduction_l	hip_rotation_l	knee_angle_l	knee_angle_l_beta	ankle_angle_l	subtalar_angle_l	mtp_angle_l	lumbar_extension	lumbar_bending	lumbar_rotation	arm_flex_r	arm_add_r	arm_rot_r	elbow_flex_r	pro_sup_r	arm_flex_l	arm_add_l	arm_rot_l	elbow_flex_l	pro_sup_l
      0.00000000	      0.07530178	     -3.63876086	      1.81856434	     -0.94993826	      1.21070040	     -0.09156219	     -0.95349016	      5.08454791	      3.80590310	     10.08334952	      0.17598765	      4.09738955	    -18.94533435	     -6.65406138	     -0.48317021	     -5.02613538	      2.20123484	      8.53630220	      0.14898658	     12.71656184	     -8.53494123	     -6.65406138	     -1.29096247	      4.25331802	     -2.01315551	      3.49600456	     -5.14656224	     15.08226990	     22.98558047	     76.97776683	      1.24158750	     -4.22182475	     17.48578334	     27.09628718	     70.14723268
      0.00416670	     -2.43421091	     -2.81466234	      1.57671521	     -0.94717752	      1.20925234	     -0.09249063	      1.82168747	      4.48501327	      4.75244662	      9.62973199	      0.16807053	      6.96251408	    -16.70465593	     -6.74926371	      2.61054805	     -3.28849547	      2.65831666	      8.37718582	      0.14620947	     12.25070496	     -7.02557895	     -6.74926371	      2.61488556	      3.40134769	     -2.05045892	      1.83088905	     -4.45869819	      9.98017297	     23.70615158	     78.29092689	      0.16472145	     -3.31415130	     12.75793422	     26.75070752	     70.51814975
      0.00833330	     -3.10870923	     -1.78573900	      1.42886661	     -0.94676850	      1.20755893	     -0.09206392	      2.01799452	      3.22683072	      4.32120998	      8.28089182	      0.14452883	      7.28832386	    -15.50575214	     -6.91691145	      2.96200658	     -2.23372470	      1.52095710	      7.93786603	      0.13854190	     11.86710439	     -6.19214652	     -6.91691145	      3.85579252	      2.04652323	     -1.39082659	      1.02274391	     -3.75662480	      7.16786019	     24.21104702	     81.06562233	      0.52653400	     -4.06970936	     15.12912001	     26.23109299	     71.79347423
      0.01250000	     -2.82379421	     -1.22740560	      1.39055956	     -0.94622618	      1.21062673	     -0.09190246	      1.27539882	      2.48680075	      4.20372105	      7.51325429	      0.13113102	      7.75609950	    -14.69433127	     -6.95954492	      1.98043804	     -1.60451964	      1.42565401	      7.15855894	      0.12494042	     11.44440468	     -6.10763439	     -6.95954492	      3.72913858	      1.24517343	     -1.15214309	      0.84154382	     -3.50748282	      7.17952075	     24.14579738	     80.62698134	      0.40591739	     -4.41419731	     15.52482515	     26.22324608	     71.52465241
      0.01666670	     -2.29904224	     -0.94278151	      1.43670620	     -0.94524709	      1.21135900	     -0.09202513	      0.22279322	      2.17760088	      4.25294540	      6.69500061	      0.11684980	      7.77892246	    -14.26590232	     -7.05931515	      0.89845095	     -1.28811390	      1.23016135	      6.37666180	      0.11129374	     10.82193248	     -6.37685026	     -7.05931515	      3.19080376	      1.00245700	     -0.79208075	      0.59400171	     -3.61493692	      8.05887153	     24.48940110	     80.05594510	      0.81625188	     -4.87297779	     18.33447878	     26.14089365	     71.07127562
      0.02083330	     -1.85755705	     -0.75626513	      1.51321152	     -0.94546129	      1.21032645	     -0.09176557	     -0.53207930	      2.03411538	      4.32729564	      6.18604325	      0.10796682	      7.87017714	    -13.91532675	     -7.14224433	      0.16844341	     -1.07836020	      1.25385645	      5.95491317	      0.10393284	     10.48874146	     -6.59325801	     -7.14224433	      2.65822280	      0.77115559	     -0.60113418	      0.60749117	     -3.60356826	      8.45139819	     24.68117523	     78.34247486	      1.10229481	     -4.92884488	     18.87698950	     26.16930836	     69.93001216
      0.02500000	     -1.54575445	     -0.64907710	      1.58134355	     -0.94652780	      1.20914717	     -0.09184741	     -1.04147836	      1.95097989	      4.58315619	      5.86547356	      0.10237183	      7.82835997	    -13.98020008	     -7.20650872	     -0.23507260	     -0.92939147	      1.36329047	      5.69759631	      0.09944181	     10.30781156	     -6.61281629	     -7.20650872	      2.22602378	      0.66562444	     -0.44458981	      0.67789536	     -3.70943368	      9.21594759	     24.84587663	     76.96284631	      1.45910218	     -4.97028154	     19.61193361	     26.20019051	     69.01068605
      0.02916670	     -1.24171183	     -0.60051781	      1.67172563	     -0.94529107	      1.20836945	     -0.09150210	     -1.52355799	      1.95952553	      4.74524155	      5.55385364	      0.09693303	      7.65245209	    -14.18851074	     -7.25603927	     -0.57814376	     -0.86465817	      1.53840513	      5.53254983	      0.09656121	     10.05077227	     -6.93438078	     -7.25603927	      1.82813688	      0.58984945	     -0.38116616	      0.73083599	     -3.81340854	     10.04582464	     24.95717454	     75.65182240	      1.71845974	     -5.05446451	     20.27649794	     26.22595924	     68.10724813
      0.03333330	     -1.20826377	     -0.56237111	      1.77077009	     -0.94539472	      1.20932602	     -0.09111545	     -1.67454871	      1.98090754	      4.99428542	      5.31968919	      0.09284609	      7.34846272	    -14.56626294	     -7.32943645	     -0.59495897	     -0.82057459	      1.78629196	      5.45430672	      0.09519561	      9.66294631	     -7.26745378	     -7.32943645	      1.83214112	      0.51870032	     -0.34803487	      0.77867936	     -4.13474064	     12.11388033	     24.92425875	     75.12625341	      2.01317704	     -5.31023308	     22.13005584	     26.07734019	     67.44346620
      0.03750000	     -0.90436612	     -0.55327024	      1.80660781	     -0.94488896	      1.21057429	     -0.09117931	     -2.11690002	      2.01210382	      4.94230377	      5.14153007	      0.08973663	      7.42011258	    -14.12887959	     -7.35880152	     -0.92440425	     -0.84223743	      1.68957891	      5.45301249	      0.09517302	      9.49566530	     -6.86843835	     -7.35880152	      1.45961038	      0.52519096	     -0.35092280	      0.78723547	     -4.16754851	     12.22578443	     25.03432755	     73.80946270	      2.11638680	     -5.29788060	     22.07697084	     26.11002749	     66.56097576
      0.04166670	     -0.89482014	     -0.48239252	      1.80928700	     -0.94543760	      1.21559890	     -0.09188560	     -2.15279509	      1.94889581	      4.90449732	      5.04660342	      0.08807985	      7.20572070	    -14.09671312	     -7.35918949	     -0.85587780	     -0.75576843	      1.69495719	      5.54017608	      0.09669431	      9.08473946	     -6.81531431	     -7.35918949	      1.40832348	      0.47676232	     -0.37404499	      0.79625560	     -4.23645940	     12.27864851	     25.03234980	     73.87666135	      2.14312591	     -5.34636138	     22.13619909	     26.08448932	     66.58315621
      0.04583330	     -0.64720405	     -0.41995050	      1.84375098	     -0.94610087	      1.21507481	     -0.09204064	     -2.55809053	      1.88814244	      5.00419505	      4.67820995	      0.08165017	      6.40662074	    -14.79808918	     -7.37763436	     -1.13171154	     -0.68114088	      1.92625325	      5.49897318	      0.09597519	      8.23921416	     -7.78363662	     -7.37763436	      1.03462166	      0.42676903	     -0.44620092	      1.01710976	     -4.45675672	     13.56609253	     24.93196456	     75.36284335	      2.46692701	     -5.58405748	     23.69409319	     25.85151998	     66.94160973
      0.05000000	     -0.49922997	     -0.35892976	      1.86233246	     -0.94587739	      1.21124593	     -0.09175476	     -2.76458822	      1.81820194	      4.99171437	      4.53168852	      0.07909289	      6.17568566	    -14.98498888	     -7.38752964	     -1.27376877	     -0.59801382	      1.89772829	      5.55770545	      0.09700026	      7.99387633	     -7.98215808	     -7.38752964	      0.76832034	      0.37320621	     -0.43771431	      1.09847468	     -4.47353202	     13.41940407	     24.96140929	     75.99200280	      2.60967694	     -5.68988134	     23.97945506	     25.87600005	     66.90725577
      0.05416670	     -0.33099961	     -0.35108377	      1.89951995	     -0.94537717	      1.21070016	     -0.09197542	     -3.01493148	      1.79017160	      4.80391287	      4.45420675	      0.07774057	      6.22768948	    -14.78620531	     -7.40056946	     -1.49587599	     -0.60248200	      1.77341826	      5.51041637	      0.09617491	      7.94259017	     -7.97546424	     -7.40056946	      0.51599561	      0.38266742	     -0.48651017	      1.13061377	     -4.50218371	     13.35009769	     25.11644155	     75.12983573	      2.64151074	     -5.73621212	     23.90681732	     25.95740086	     66.42311350
